<?xml version="1.0" encoding="UTF-8" standalone="no"?>
<!-- Created with Inkscape (http://www.inkscape.org/) -->

<svg
   xmlns:dc="http://purl.org/dc/elements/1.1/"
   xmlns:cc="http://creativecommons.org/ns#"
   xmlns:rdf="http://www.w3.org/1999/02/22-rdf-syntax-ns#"
   xmlns:svg="http://www.w3.org/2000/svg"
   xmlns="http://www.w3.org/2000/svg"
   xmlns:sodipodi="http://sodipodi.sourceforge.net/DTD/sodipodi-0.dtd"
   xmlns:inkscape="http://www.inkscape.org/namespaces/inkscape"
   version="1.1"
   width="500pt"
   height="167pt"
   viewBox="0 0 500 167"
   id="svg3031"
   sodipodi:docname="Bisleri_logo - pa.svg"
   inkscape:version="0.92.2pre0 (973e216, 2017-07-25)">
  <sodipodi:namedview
     pagecolor="#ffffff"
     bordercolor="#666666"
     borderopacity="1"
     objecttolerance="10"
     gridtolerance="10"
     guidetolerance="10"
     inkscape:pageopacity="0"
     inkscape:pageshadow="2"
     inkscape:window-width="1280"
     inkscape:window-height="738"
     id="namedview15"
     showgrid="false"
     inkscape:zoom="0.66609459"
     inkscape:cx="288.45633"
     inkscape:cy="111.33333"
     inkscape:window-x="-8"
     inkscape:window-y="-8"
     inkscape:window-maximized="1"
     inkscape:current-layer="g3067" />
  <metadata
     id="metadata3056">
    <rdf:RDF>
      <cc:Work
         rdf:about="">
        <dc:format>image/svg+xml</dc:format>
        <dc:type
           rdf:resource="http://purl.org/dc/dcmitype/StillImage" />
        <dc:title></dc:title>
      </cc:Work>
    </rdf:RDF>
  </metadata>
  <defs
     id="defs3054" />
  <g
     id="g3067"
     style="display:inline">
    <g
       id="g4570">
      <path
         inkscape:transform-center-y="-38.282851"
         inkscape:transform-center-x="6.7557973"
         inkscape:connector-curvature="0"
         id="path4534"
         d="m 275.20808,146.30887 c -14.87449,-7.43287 -22.20232,-17.00029 -22.14387,-28.91165 0.0448,-9.12986 4.01137,-15.74724 13.98538,-23.331688 4.00395,-3.044677 7.17151,-6.084787 7.03903,-6.75579 -0.20938,-1.06047 -5.35705,-19.001374 -6.56909,-22.894874 -0.32504,-1.0441 -4.80743,-1.40746 -17.36297,-1.40746 h -16.92483 v 42.786722 42.78671 h -5.62983 -5.62983 V 126.6245 104.66816 h -18.01546 -18.01546 v 4.35018 c 0,6.63511 -2.01905,15.85111 -4.67435,21.33623 -6.82921,14.10729 -25.3653,11.35939 -23.00356,-3.41018 0.86256,-5.39403 5.02909,-13.87026 11.06894,-22.51818 4.40808,-6.311518 4.47961,-6.57059 3.73468,-13.526698 -0.41772,-3.900562 -1.90401,-11.645294 -3.30286,-17.210527 l -2.54338,-10.118587 h -15.69249 -15.69247 l -0.29504,42.505222 -0.29503,42.50522 h -5.05331 -5.0533 v -8.52062 c 0,-7.60036 -0.21282,-8.45368 -1.97044,-7.90078 -10.38266,3.26609 -32.710869,3.8733 -45.271209,1.23115 -11.94961,-2.51367 -24.82019,-9.7116 -24.82019,-13.88079 0,-4.68213 9.80256,-14.58655 20.89747,-21.114608 1.83256,-1.078245 1.47866,-1.599127 -3.33815,-4.913182 -6.50489,-4.475475 -13.15656,-14.3538 -15.95421,-23.693392 l -2.03129,-6.78121 h -7.66867 -7.66868 v 42.786722 42.78671 h -5.62983 -5.62983 V 105.79413 63.007408 h -8.44474 -8.4447497 v -4.50386 -4.50386 h 8.4447497 8.44474 v -3.82228 c 0,-6.64177 4.1862,-17.92058 8.53857,-23.00535 6.76503,-7.90341 17.67832,-11.78731 27.79046,-9.89026 8.61074,1.61539 19.06304,11.63777 20.70643,19.85475 l 0.67031,3.35154 h -5.64851 c -5.01578,0 -5.72413,-0.30126 -6.32353,-2.68946 -0.37126,-1.47921 -2.47055,-4.26598 -4.66511,-6.19282 -3.39516,-2.98098 -4.88279,-3.50334 -9.97722,-3.50334 -4.34741,0 -7.01387,0.69383 -9.73612,2.53342 -4.43983,3.00026 -8.70988,11.02054 -9.69536,18.21047 l -0.70635,5.15333 H 176.2174 c 76.56542,0 139.19351,-0.38002 139.17354,-0.84448 -0.082,-1.90606 -8.91962,-12.95169 -12.44185,-15.5503 -4.84609,-3.57534 -11.25776,-5.29485 -16.25065,-4.35818 l -3.9242,0.73619 v -5.87821 -5.87821 l 8.16326,0.45157 c 4.91622,0.27195 9.95472,1.31566 12.66711,2.62395 6.65091,3.20799 14.10999,11.2956 18.93862,20.53441 l 4.26649,8.16326 h 64.11867 64.11868 v -2.7595 c 0,-7.44401 -2.61916,-14.75611 -6.77541,-18.91535 -3.8044,-3.80715 -4.80059,-4.22237 -10.13021,-4.22237 -7.24424,0 -12.49697,2.9404 -15.11738,8.46249 -1.71502,3.61416 -2.25652,3.92313 -6.87567,3.92313 -3.75297,0 -5.01402,-0.43387 -5.01402,-1.72511 0,-3.42756 3.21228,-9.29386 7.3608,-13.44238 13.99377,-13.993761 35.0441,-10.29297 43.85187,7.70946 1.6343,3.34041 3.28527,9.18658 3.72801,13.20111 l 0.79465,7.20553 10.97818,0.32227 10.97817,0.32227 v 4.42231 4.42232 l -10.97817,0.32226 -10.97818,0.32227 -0.29503,42.505222 -0.29503,42.50522 h -5.61629 -5.61629 V 105.79413 63.007408 h -10.0336 -10.03359 l -0.49177,33.497499 c -0.31904,21.730943 -0.96904,34.991483 -1.85048,37.750643 -5.68134,17.78435 -29.35398,20.19728 -51.7071,5.27042 -8.66605,-5.78696 -17.65045,-14.72402 -20.69074,-20.58172 -2.99428,-5.76908 -3.22975,-14.48544 -0.52962,-19.60537 3.51683,-6.668535 5.5046,-7.056345 36.16776,-7.056345 h 27.64209 V 77.644973 63.007408 H 375.1833 326.84659 l -1.31482,6.3334 c -0.72314,3.483367 -2.28043,9.14004 -3.46064,12.570375 -1.18021,3.430335 -2.01785,6.360074 -1.86143,6.510532 0.15642,0.150457 3.19695,2.53128 6.75673,5.290725 10.8011,8.37271 14.35805,14.33213 14.35805,24.05591 0,8.25673 -3.07088,14.72218 -9.8101,20.65429 -5.14711,4.53066 -14.11835,9.45271 -19.60286,10.75503 -2.5544,0.60657 -3.05529,0.27182 -3.71286,-2.48125 -0.41805,-1.75034 -1.00857,-4.02202 -1.31227,-5.04821 -0.4166,-1.40771 0.77137,-2.31547 4.83882,-3.69743 7.03737,-2.39101 13.71388,-7.07321 17.01625,-11.93337 4.94141,-7.27233 1.24457,-18.19653 -8.40444,-24.83523 l -5.02072,-3.454338 -4.72987,4.342948 c -2.60143,2.38862 -6.60501,5.49616 -8.89682,6.90564 -3.99986,2.45992 -4.31172,2.48782 -7.77729,0.69571 -1.98569,-1.02684 -6.04607,-4.14533 -9.02309,-6.92997 l -5.41274,-5.063003 -3.71867,2.298263 c -7.66632,4.73805 -12.125,12.11541 -12.125,20.06211 0,3.52975 0.85445,5.00762 5.46402,9.45065 3.39667,3.27396 8.00665,6.25253 12.18419,7.87242 l 6.72017,2.60581 -1.11423,4.86919 c -1.35418,5.9178 -2.49339,6.06132 -11.67889,1.47126 z m 140.75409,-9.08363 c 5.29004,-2.41031 6.92545,-7.19321 7.37843,-21.57891 l 0.4166,-13.2301 -23.48239,0.0166 c -25.21674,0.0178 -28.80156,0.68337 -29.48703,5.47445 -0.62134,4.34294 0.78383,7.84364 5.03902,12.55363 11.98447,13.26538 30.6778,21.07348 40.13537,16.76433 z m -298.41667,-15.66462 7.59348,-2.34538 v -8.55699 -8.55699 l -15.48204,0.65213 c -8.73311,0.36785 -18.427019,1.45573 -22.237829,2.4956 -11.98712,3.27096 -20.67874,9.78597 -17.06097,12.78846 2.17922,1.80858 9.46013,4.68744 14.704,5.81393 7.11089,1.52756 23.970499,0.3386 32.483359,-2.29076 z M 303.30995,94.153177 c 2.06467,-2.57706 4.59888,-6.025335 5.6316,-7.66284 2.67135,-4.235782 6.48571,-16.039042 6.48571,-20.069499 v -3.41343 h -17.94901 c -9.87195,0 -18.20782,0.41878 -18.52415,0.93062 -0.95774,1.54964 2.50029,14.525967 5.38378,20.202822 3.61206,7.111192 11.60353,16.08493 13.63132,15.306802 0.87275,-0.334905 3.27609,-2.717415 5.34075,-5.294475 z M 221.97207,78.77094 V 63.007408 h -21.20569 c -11.66315,0 -21.47523,0.26953 -21.80464,0.59895 -0.48454,0.48453 2.10363,14.302645 5.31841,28.394687 0.57064,2.501392 0.81253,2.533425 19.13493,2.533425 h 18.55699 z M 125.13898,77.081993 V 63.007408 H 94.737891 c -20.16883,0 -30.40109,0.39158 -30.40109,1.1634 0,1.95386 5.33632,11.826602 8.28924,15.335942 3.83278,4.555005 12.72729,9.173595 19.98901,10.37955 3.33504,0.55386 12.017269,1.066245 19.293819,1.138642 l 13.23011,0.131625 z"
         style="opacity:1;fill:#00b3a1;fill-opacity:1;stroke-width:1.12596619;stroke-miterlimit:4;stroke-dasharray:none;paint-order:markers fill stroke" />
    </g>
  </g>
</svg>
