<?xml version="1.0" encoding="UTF-8" standalone="no"?>
<!-- Created with Inkscape (http://www.inkscape.org/) -->

<svg
   xmlns:dc="http://purl.org/dc/elements/1.1/"
   xmlns:cc="http://creativecommons.org/ns#"
   xmlns:rdf="http://www.w3.org/1999/02/22-rdf-syntax-ns#"
   xmlns:svg="http://www.w3.org/2000/svg"
   xmlns="http://www.w3.org/2000/svg"
   version="1.1"
   width="500pt"
   height="167pt"
   viewBox="0 0 500 167"
   id="svg3031">
  <metadata
     id="metadata3056">
    <rdf:RDF>
      <cc:Work
         rdf:about="">
        <dc:format>image/svg+xml</dc:format>
        <dc:type
           rdf:resource="http://purl.org/dc/dcmitype/StillImage" />
        <dc:title></dc:title>
      </cc:Work>
    </rdf:RDF>
  </metadata>
  <defs
     id="defs3054" />
  <g
     id="g3067">
    <path
       d="m 260.12,0 12.25,0 c -0.94,36.32 -0.9,72.64 -0.96,108.97 -0.2,17.56 -0.31,35.26 3.16,52.57 -7.92,-0.11 -15.84,-0.06 -23.76,-0.08 2.9,-13.6 3.57,-27.56 3.49,-41.43 -0.06,-13.35 -0.11,-26.7 -0.24,-40.05 -0.08,-26.23 1.05,-52.65 -3.15,-78.65 3.08,-0.4 6.14,-0.86 9.21,-1.33 z"
       id="path3034"
       style="fill:#00b3a1" />
    <path
       d="m 3.46,12 c 22.2,0.35 44.36,-1.41 66.55,-1.29 9.34,0.3 19.21,2.54 26.36,8.91 6.58,5.68 8.75,15.12 7.47,23.47 -1.06,7.66 -5.44,14.56 -11.25,19.54 -7.47,6.57 -16.92,10.08 -25.97,13.84 11.93,1.96 24.33,5.17 33.65,13.31 6.2,5.36 10.08,13.1 11.27,21.17 2.37,15.7 -5.17,32.4 -18.47,41.07 -8.1,5.15 -17.39,8.29 -26.87,9.61 C 45.35,164.51 24.4,160.42 3.49,161.32 9.54,133.63 7.13,105.14 7.76,77.05 7.42,55.34 8.45,33.31 3.46,12 m 27.67,8.58 c -2.27,18.11 -2.12,36.41 -2.31,54.64 10.84,-0.34 22.04,-0.28 32.29,-4.3 7.28,-2.88 14.13,-8.03 17.22,-15.42 3.3,-7.75 3.3,-17.32 -1.49,-24.46 -2.7,-4.11 -7.2,-6.6 -11.81,-8 -10.95,-3.5 -22.58,-2.49 -33.9,-2.46 m -2.3,63.23 c 0.3,21.06 -0.82,42.25 2.13,63.18 0.63,3.34 3.94,5.16 6.98,5.87 6.17,1.26 12.57,1.61 18.83,0.91 9.47,-1.07 19.14,-5.48 24.32,-13.8 6.37,-10.62 7.52,-24.35 2.72,-35.81 -2.95,-7.21 -9,-12.85 -16.08,-15.95 -12.23,-5.32 -25.9,-4.17 -38.9,-4.4 z"
       id="path3036"
       style="fill:#00b3a1" />
    <path
       d="m 135.27,18.25 c 5.2,-1.58 11.87,-0.3 14.89,4.57 2.35,4.29 2.15,9.79 -0.36,13.96 -4.15,7.77 -15.96,12.1 -22.79,5.22 -7.1,-7.79 -1.07,-20.99 8.26,-23.75 z"
       id="path3038"
       style="fill:#00b3a1" />
    <path
       d="m 473.32,18.44 c 6.88,-3.22 16.67,1.62 17.01,9.56 1.03,9.43 -7.97,18.04 -17.24,17.37 -5.41,-0.37 -10.34,-4.94 -10.64,-10.45 -0.52,-7.14 4.37,-13.85 10.87,-16.48 z"
       id="path3040"
       style="fill:#00b3a1" />
    <path
       d="m 125.51,57.14 c 7.49,-0.71 14.98,-1.4 22.47,-2.09 -1.14,21.62 -0.99,43.28 -1.15,64.93 0.14,13.89 -0.46,28.13 3.77,41.55 -8.48,-0.08 -16.96,-0.09 -25.43,0.01 5,-17.07 3.46,-35.03 3.74,-52.56 -0.46,-17.3 0.47,-34.84 -3.4,-51.84 z"
       id="path3042"
       style="fill:#00b3a1" />
    <path
       d="m 183.33,60.26 c 14.68,-8.61 32.37,-5.13 48.25,-2.69 0.02,6.28 -0.09,12.56 -0.12,18.84 -5.71,-6.81 -13.37,-12.94 -22.53,-13.76 -5.86,-0.32 -12.57,0.94 -16.31,5.9 -3.82,4.53 -4.22,11.58 -0.46,16.27 10.03,14.83 29.1,19.17 40.51,32.57 5.48,6.43 6.19,15.88 3.3,23.6 -2.6,7.36 -8.74,12.81 -15.25,16.75 -14.59,8.42 -33.03,8.28 -48.41,2.09 -3.18,-1.14 -5,-4.46 -5.14,-7.71 -0.31,-5.46 1.13,-10.84 1,-16.3 4.02,9.68 12.87,17.49 23.27,19.46 5.16,1.05 10.49,0.18 15.42,-1.49 10.79,-3.82 16.24,-19.18 8.52,-28.23 -10.55,-11.6 -26.77,-15.97 -37.1,-27.83 -9.77,-10.59 -8.2,-30.43 5.05,-37.47 z"
       id="path3044"
       style="fill:#00b3a1" />
    <path
       d="m 310.17,63.2 c 8.67,-6.01 19.39,-8.46 29.82,-8.54 10.89,0.02 22.32,3.31 30.05,11.32 5.01,5 8.4,11.98 7.86,19.17 -0.21,3.15 -2.08,6.45 -5.32,7.23 -20.46,3.06 -41.24,2.46 -61.84,1.41 -2.9,11.09 -2.57,23.17 1.72,33.87 3.04,7.58 8.53,14.36 15.91,18.07 8.57,4.54 18.93,4.73 28.06,1.83 7.82,-2.36 14.86,-6.69 21.33,-11.59 -1.69,8.97 -7.55,16.83 -15.34,21.47 -11.56,6.94 -26,8.4 -38.95,5.06 -10.65,-2.73 -20.02,-9.76 -25.86,-19.05 -9.03,-14.2 -11.2,-32.12 -7.59,-48.39 2.77,-12.48 9.5,-24.49 20.15,-31.86 m 13.04,4.05 c -6.25,4.91 -9.29,12.62 -11.61,19.98 13.12,0.47 26.3,0.99 39.4,-0.36 3.42,-0.5 6.67,-3.35 6.84,-6.94 -0.6,-4.67 -2.55,-9.38 -6.35,-12.34 -7.95,-6.34 -20.13,-6.31 -28.28,-0.34 z"
       id="path3046"
       style="fill:#00b3a1" />
    <path
       d="m 410.24,70.26 c 7.11,-7.09 15.47,-14.07 25.77,-15.43 6.08,-0.45 13.22,-0.36 17.7,4.45 2.51,2.57 2.37,8.07 -1.58,9.13 -10.14,4.63 -21.63,-0.68 -31.97,2.99 -4.26,1.6 -6.9,5.89 -7.77,10.19 -1.3,6.07 -1.03,12.33 -1.5,18.49 0.34,20.5 -2.53,41.7 4.21,61.53 -9.65,-0.15 -19.29,-0.19 -28.93,-0.07 3.6,-9.38 4.34,-19.54 4.36,-29.5 0,-8.68 0.04,-17.36 -0.11,-26.04 0.05,-15.76 0.87,-32.05 -4.65,-47.1 7.77,-0.76 15.56,-1.55 23.38,-1.58 0.38,4.31 0.71,8.63 1.09,12.94 z"
       id="path3048"
       style="fill:#00b3a1" />
    <path
       d="m 464.01,57.21 c 7.48,-0.75 14.96,-1.5 22.44,-2.23 -0.91,17.99 -1.06,36 -1.04,54.01 0.22,17.52 -1.36,35.49 3.67,52.52 -8.4,-0.13 -16.81,-0.1 -25.21,-0.05 3.04,-11.2 3.55,-22.87 3.49,-34.41 0.22,-14.36 -0.07,-28.72 -0.27,-43.07 -0.22,-8.99 -1.04,-18 -3.08,-26.77 z"
       id="path3050"
       style="fill:#00b3a1" />
  </g>
</svg>
