<?xml version="1.0" encoding="utf-8"?>
<!-- Svg Vector Icons : http://www.onlinewebfonts.com/icon -->
<!DOCTYPE svg PUBLIC "-//W3C//DTD SVG 1.1//EN" "http://www.w3.org/Graphics/SVG/1.1/DTD/svg11.dtd">
<svg version="1.1" xmlns="http://www.w3.org/2000/svg" xmlns:xlink="http://www.w3.org/1999/xlink" x="0px" y="0px" viewBox="0 0 1000 1000" enable-background="new 0 0 1000 1000" xml:space="preserve">
<metadata> Svg Vector Icons : http://www.onlinewebfonts.com/icon </metadata>
<g><g transform="translate(0.000000,511.000000) scale(0.100000,-0.100000)"><path d="M473.5,2682.1c-127.7-40.1-217.9-112.7-293-242.9l-70.1-117.7l-7.5-1665.4c-7.5-1838.2-12.5-1783.1,150.3-1965.9c125.2-145.3,227.9-167.8,713.7-157.8l428.2,7.5l110.2,75.1c60.1,42.6,135.2,127.7,170.3,187.8l62.6,112.7v1703v1703l-70.1,117.7c-45.1,77.6-110.2,142.8-187.8,187.8c-115.2,67.6-130.2,70.1-518.4,75.1C741.5,2704.6,521.1,2694.6,473.5,2682.1z M1310,2253.8c35.1-50.1,40.1-247.9,40.1-1645.4c0-1442.5-5-1592.8-42.6-1635.4c-35.1-40.1-82.6-45.1-385.7-45.1c-280.5,0-353.1,7.5-383.2,40.1c-35.1,35-40.1,217.9-40.1,1642.9c0,1460,5,1610.3,42.6,1652.9c35.1,40.1,82.6,45.1,385.7,45.1C1254.9,2309,1274.9,2306.5,1310,2253.8z"/><path d="M5049,2571.9c-107.7-20-480.8-110.2-826.5-197.8c-869-222.9-1487.6-315.6-2086.1-315.6h-185.3V696.1V-663.7l195.3-12.5c258-17.5,415.7-82.6,786.4-323c513.4-335.6,713.7-418.2,1159.5-473.3c290.5-37.6,826.4-20,1352.4,40.1c240.4,30,578.5,42.6,1076.9,45.1c708.7,2.5,728.8,5,859,62.6c167.8,75.1,295.5,222.9,345.6,398.2c117.7,405.7-205.3,834-781.3,1039.3c-230.4,82.7-390.7,110.2-824,142.8c-498.3,37.6-686.2,82.6-783.9,182.8c-97.7,100.2-130.2,187.8-100.2,258c20,42.5,70.1,62.6,240.4,97.7c120.2,22.5,293,42.6,385.7,42.6c155.3,2.5,180.3-5,325.6-100.2c227.9-147.8,518.4-280.5,613.6-280.5c62.6,0,112.7,27.6,220.4,125.2c170.3,155.3,303,222.9,636.1,325.6c313,95.2,403.2,167.8,403.2,318.1c0,132.7-72.6,222.9-355.6,450.8c-510.9,410.7-1049.3,718.8-1485.1,849c-190.3,57.6-283,67.6-601,75.1C5362.1,2604.5,5184.3,2596.9,5049,2571.9z M5913,2173.7c232.9-45.1,553.5-162.8,766.3-280.5c207.9-115.2,636.1-403.2,766.3-515.9l97.7-85.1l-197.8-70.1c-212.9-75.1-408.2-182.8-515.9-283c-62.6-57.6-75.1-62.6-142.8-32.5c-42.6,15-162.8,85.2-270.5,152.8c-107.7,67.6-235.4,135.2-283,147.7c-217.9,60.1-879-12.5-1059.3-120.2c-140.2-80.1-227.9-232.9-237.9-418.2c-12.5-180.3,32.6-300.5,170.3-470.8c175.3-207.9,383.2-275.5,1036.8-330.6c525.9-45.1,686.2-80.1,934.1-200.4c285.5-140.2,428.2-345.6,358.1-513.4c-57.6-140.2-127.7-150.3-844-147.7c-505.9,2.5-756.3-7.5-1157-50.1c-829-85.2-1322.3-62.6-1670.4,77.6c-82.6,32.6-305.5,162.8-498.4,288c-340.6,220.4-563.5,333.1-733.8,370.6l-80.1,17.5l5,979.2l7.5,981.7l275.5,15c505.9,30,844,90.1,1660.4,300.5c320.6,82.6,668.7,165.3,776.4,182.8C5332,2216.3,5685.1,2216.3,5913,2173.7z"/><path d="M8061.8,831.4c-325.6-45.1-623.6-180.3-849-390.7L7075,313l175.3-92.6c130.2-70.1,182.8-85.2,210.4-67.6c290.5,200.4,475.8,263,788.9,260.4c192.8,0,285.5-12.5,398.2-55.1c323-117.7,586-355.6,733.8-668.7c82.6-172.8,92.7-217.9,102.7-445.8c7.5-195.4,0-293-32.6-405.7c-257.9-899.1-1382.4-1209.6-2061.1-568.5l-142.8,132.7h-230.4c-127.7,0-232.9-5-232.9-12.5c0-37.6,147.8-240.4,260.5-358.1c212.9-225.4,485.8-388.2,791.4-470.8c215.4-57.6,608.6-57.6,826.4,0c538.4,145.2,994.2,576,1169.6,1101.9C9890-1164.6,9900-1092,9900-834c0,335.6-32.6,485.9-172.8,763.8C9419.1,540.9,8717.9,921.5,8061.8,831.4z"/><path d="M8187,270.4c0-47.6-17.5-65.1-77.6-77.7c-102.7-22.5-253-177.8-290.5-295.5c-25-85.2-20-107.7,45.1-240.4c40.1-80.1,80.1-200.4,87.7-268c22.5-165.3,47.6-207.9,150.3-250.4l85.2-35.1v-265.5c0-300.5-22.5-323.1-125.2-120.2c-35.1,67.6-62.6,125.2-65.1,127.7c-5,27.5-142.8-45.1-185.3-100.2l-52.6-67.6l60.1-135.2c65.1-140.3,182.8-250.4,300.5-278c60.1-15,67.6-30,67.6-127.7c0-105.2,2.5-110.2,72.6-110.2c70.1,0,70.1,2.5,60.1,107.7l-12.5,107.7l115.2,45.1c207.9,80.1,323.1,273,323.1,553.4c2.5,273-75.1,405.7-305.5,523.4l-110.2,57.6l-10,245.4c-10,197.9-5,242.9,20,232.9c20.1-5,55.1-50.1,80.1-97.7c22.5-47.6,57.6-82.6,75.1-80.1c207.9,27.5,217.9,32.5,202.9,102.7c-47.6,190.4-167.8,330.6-318.1,368.1c-50.1,12.5-67.6,32.6-67.6,77.7c0,47.6-12.5,60.1-62.6,60.1S8187,318,8187,270.4z M8187-308.1c0-127.7-10-212.9-25-212.9c-35.1,0-125.2,150.3-125.2,207.9c0,77.7,70.1,217.9,110.2,217.9C8179.5-95.2,8187-132.8,8187-308.1z M8487.5-1112c22.5-62.6,22.5-107.7,0-170.3c-30.1-97.7-110.2-177.8-147.8-152.8c-30,17.5-37.6,283-12.5,408.2c15,75.1,17.5,75.1,75.1,40.1C8432.4-1009.3,8472.5-1064.4,8487.5-1112z"/></g></g>
</svg>