<?xml version="1.0" encoding="iso-8859-1"?>
<!-- Generator: Adobe Illustrator 18.0.0, SVG Export Plug-In . SVG Version: 6.00 Build 0)  -->
<!DOCTYPE svg PUBLIC "-//W3C//DTD SVG 1.1//EN" "http://www.w3.org/Graphics/SVG/1.1/DTD/svg11.dtd">
<svg version="1.1" id="Capa_1" xmlns="http://www.w3.org/2000/svg" xmlns:xlink="http://www.w3.org/1999/xlink" x="0px" y="0px"
	 viewBox="0 0 56.609 56.609" style="enable-background:new 0 0 56.609 56.609;" xml:space="preserve">
<g>
	<path style="fill:#1D1D1B;" d="M52.44,14.297C45.443,2.89,31.239-1.24,19.132,3.991c-0.053-0.078-0.139-0.131-0.27-0.117
		C6.729,5.194-0.242,16.449,0.006,28.018c0.262,12.235,6.759,23.099,19.11,25.899c10.367,2.35,24.188,0.471,31.757-7.64
		C58.476,38.132,58.019,23.393,52.44,14.297z M39.17,52.23c-12.02,3.684-28.12,2.28-34.729-9.886
		C-2.915,28.804,0.917,7.096,18.437,4.631c0.057,0.084,0.144,0.145,0.255,0.099C31.733-0.669,46.94,4.078,53.103,17.19
		c2.957,6.292,3.403,14.463,1.382,21.119C52.275,45.589,46.207,50.074,39.17,52.23z"/>
	<path style="fill:#1D1D1B;" d="M40.342,39.301c-7.18-10.226-16.753-18.85-26.456-26.631c-0.039-0.032-0.082-0.035-0.122-0.026
		c-0.681-0.326-1.368,0.192-1.694,0.842c-0.364,0.727-0.51,1.616-0.717,2.394c-0.189,0.713-0.419,1.434-0.5,2.169
		c-0.012,0.013-0.017,0.024-0.03,0.037c-0.255,0.275-0.523,0.447-0.725,0.774c-0.584,0.948-0.563,2.099-0.03,3.011
		c-0.014,0.009-0.028,0.018-0.035,0.037c-3.303,8.068-3.208,16.494,2.889,22.372c-9.321-7.556-8.706-19.723-2.745-29.336
		c0.067-0.108-0.095-0.196-0.167-0.098C3.295,24.04,3.41,37.748,13.157,44.776c0.087,0.063,0.189-0.04,0.176-0.126
		c0.815,0.74,1.714,1.443,2.734,2.09c-0.018,0.091-0.031,0.183-0.027,0.279c0.008,0.161,0.056,0.31,0.129,0.44
		c-0.039,0.38,0.153,0.731,0.541,0.994c0.382,0.259,0.827,0.262,1.264,0.328c0.857,0.128,1.322,0.31,1.89,1.15
		c0.162,0.24,0.188,0.533,0.378,0.767c1.333,1.641,3.059-0.216,3.571-1.539c0.172,0.057,0.347,0.05,0.513,0
		c0.03,0.059,0.078,0.106,0.166,0.104c4.861-0.148,13.116-0.353,17.102-3.391C44.267,43.835,41.991,41.649,40.342,39.301z
		 M24.803,48.059c-0.143,0.49-0.598,0.576-1.011,0.731c-0.075,0.028-0.111,0.087-0.124,0.149c-0.034,0.007-0.065,0.024-0.084,0.062
		c-0.129,0.253-0.247,0.542-0.422,0.767c-0.28,0.277-0.561,0.554-0.841,0.831c-0.608-0.148-1.215-0.296-1.823-0.445
		c-0.291-0.274-0.359-0.837-0.674-1.153c-0.643-0.645-3.338-0.881-3.256-1.886c0.007-0.087-0.067-0.133-0.142-0.135
		c0.038-0.472,0.284-1.083,0.229-1.384c-0.073-0.402-0.292-0.757-0.676-0.906c-0.122-0.047-0.242,0.117-0.171,0.222
		c0.272,0.399,0.518,0.694,0.422,1.209c-0.028,0.152-0.08,0.299-0.122,0.447c-3.41-2.81-6.447-6.019-7.636-10.407
		c-1.332-4.917,0.198-9.475,1.692-14.136c0.113,0.168,0.238,0.329,0.387,0.474c0.106,0.102,0.251-0.05,0.159-0.159
		c-0.548-0.65-0.83-1.543-0.653-2.391c0.189-0.904,0.708-1.204,1.333-1.8c0.239-0.228,0.292-0.279,0.425-0.552
		c0.413-0.847,0.564-1.483,1.366-2.034c-0.486,2.524-2.388,6.919-2.585,7.671c-0.674,2.573-1.122,5.228-1.262,7.887
		c-0.198,3.764,0.34,7.261,2.828,10.217c2.754,3.271,6.878,5.064,11.079,5.478c0.362,0.036,0.726,0.055,1.09,0.071
		c0.002,0.002,0.002,0.004,0.004,0.006C24.716,47.135,24.934,47.61,24.803,48.059z M24.852,48.831
		c0.185-0.188,0.324-0.423,0.377-0.655c0.114-0.502-0.127-0.978-0.519-1.272c1.294,0.035,2.596-0.04,3.876-0.193
		c1.749-0.209,3.477-0.595,5.176-1.054c0.821-0.222,7.415-1.581,6.877-0.827c-0.116,0.163,0.124,0.303,0.256,0.181
		C37.761,48.359,28.001,48.685,24.852,48.831z M41.487,44.194c0.024-0.086-0.023-0.187-0.107-0.209
		c-4.043-1.071-8.803,1.765-12.886,2.237c-7.194,0.833-16.012-1.584-18.299-9.425c-1.611-5.522,0.196-12.45,2.147-17.653
		c0.386-1.029,2.821-4.463,0.826-5.404c-0.073-0.034-0.168,0.063-0.094,0.122c0.245,0.193,0.261,0.73,0.147,1.442
		c-0.005,0.001-0.009-0.003-0.015-0.002c-0.698,0.188-1.044,0.595-1.421,1.19c-0.254,0.402-0.342,0.723-0.582,1.102
		c0.221-0.592,0.375-1.218,0.552-1.816c0.277-0.937,0.515-3.306,2.08-2.774c0.003,0.001,0.005-0.001,0.008,0
		c6.513,5.898,13.282,11.45,19.221,17.958c1.338,1.466,2.643,2.964,3.887,4.511c0.893,1.111,4.769,5.17,4.915,6.88
		C41.924,43.04,41.779,43.649,41.487,44.194z"/>
	<path style="fill:#1D1D1B;" d="M16.616,16.778c-0.093-0.08-0.245,0.021-0.177,0.136c0.171,0.288,0.341,0.569,0.408,0.904
		c0.089,0.448,0.057,1.377-0.646,1.064c-0.703-0.312-0.7-1.373-0.272-1.891c0.048-0.058-0.029-0.14-0.085-0.085
		c-0.663,0.654-0.564,2.148,0.51,2.345c0.541,0.099,0.769-0.382,0.824-0.842C17.25,17.824,17.071,17.17,16.616,16.778z"/>
	<path style="fill:#1D1D1B;" d="M14.873,21.212c-0.32-0.398-0.854-0.578-1.322-0.332c-1.37,0.719-0.387,2.348,0.306,3.123
		c0.046,0.051,0.137-0.017,0.097-0.074c-0.471-0.66-1.122-1.554-0.648-2.38c0.333-0.581,1.078-0.597,1.417,0.001
		c0.279,0.492,0.108,1.056-0.055,1.552c-0.063,0.191,0.222,0.258,0.295,0.081C15.218,22.556,15.33,21.779,14.873,21.212z"/>
	<path style="fill:#1D1D1B;" d="M36.258,39.604c-0.553-0.625-1.554-0.538-2.29-0.414c-0.172,0.029-0.134,0.326,0.042,0.307
		c0.53-0.055,1.094-0.147,1.603,0.06c0.463,0.188,0.867,0.781,0.571,1.285c-0.274,0.466-1.203,0.226-1.619,0.103
		c-0.665-0.195-1.265-0.689-1.222-1.438c0.007-0.129-0.182-0.122-0.197,0c-0.095,0.763,0.426,1.354,1.102,1.629
		c0.563,0.229,1.666,0.529,2.129-0.035C36.722,40.679,36.598,39.989,36.258,39.604z"/>
	<path style="fill:#1D1D1B;" d="M32.579,36.832c-0.072,0.149,0.107,0.304,0.235,0.181c0.336-0.324,0.65-0.591,1.144-0.601
		c0.515-0.011,0.954,0.298,1.028,0.82c0.054,0.383-0.095,0.858-0.461,1.042c-0.523,0.263-1.248-0.1-1.721-0.331
		c-0.107-0.052-0.195,0.095-0.094,0.161c0.536,0.354,1.382,0.742,2.007,0.394c0.461-0.257,0.661-0.83,0.596-1.333
		C35.142,35.85,33.125,35.702,32.579,36.832z"/>
	<path style="fill:#1D1D1B;" d="M23.794,40.996c-0.211-0.585-0.81-1.158-1.485-0.944c-0.575,0.182-0.688,0.801-0.596,1.324
		c0.094,0.532,0.36,1.366,0.992,1.415c0.117,0.009,0.134-0.169,0.027-0.2c-0.804-0.235-1.135-2.642,0.143-2.154
		c0.894,0.341,0.878,1.904,0.602,2.631c-0.054,0.143,0.135,0.208,0.229,0.133C24.267,42.752,24.003,41.575,23.794,40.996z"/>
	<path style="fill:#1D1D1B;" d="M20.318,40.23c0.019-0.148-0.196-0.151-0.242-0.033c-0.073,0.188-0.08,0.32-0.068,0.524
		c0.008,0.137,0.124,0.524-0.001,0.649c-0.285,0.113-0.416,0.078-0.393-0.106c-0.004-0.082-0.003-0.164,0.002-0.246
		c0.012-0.266,0.065-0.523,0.136-0.778c0.029-0.104-0.123-0.142-0.159-0.044c-0.124,0.336-0.569,1.663,0.156,1.666
		C20.601,41.867,20.259,40.685,20.318,40.23z"/>
	<path style="fill:#1D1D1B;" d="M22.058,24.15c-0.481-0.239-1.02,0.031-1.147,0.548c-0.023,0.095,0.116,0.132,0.146,0.04
		c0.132-0.4,0.551-0.551,0.927-0.411C22.085,24.365,22.156,24.198,22.058,24.15z"/>
	<path style="fill:#1D1D1B;" d="M22.746,24.833c-0.196,0.371-0.415,0.604-0.767,0.835c-0.08,0.052-0.031,0.193,0.068,0.161
		c0.431-0.14,0.757-0.485,0.889-0.915C22.97,24.802,22.801,24.728,22.746,24.833z"/>
	<path style="fill:#1D1D1B;" d="M14.103,38.293c-0.402-0.343-0.897-0.44-1.416-0.4c-0.098,0.007-0.101,0.154,0,0.155
		c0.496,0.005,0.871,0.166,1.303,0.392C14.079,38.485,14.188,38.365,14.103,38.293z"/>
	<path style="fill:#1D1D1B;" d="M14.461,39.465c-0.331,0.239-0.781,0.252-1.032-0.122c-0.066-0.099-0.22-0.012-0.161,0.094
		c0.266,0.475,0.941,0.626,1.323,0.197C14.667,39.548,14.566,39.389,14.461,39.465z"/>
	<path style="fill:#1D1D1B;" d="M16.55,40.045c-0.024-0.095-0.161-0.07-0.166,0.022c-0.018,0.348-0.3,0.67-0.683,0.575
		c-0.125-0.031-0.177,0.157-0.053,0.193C16.154,40.983,16.685,40.584,16.55,40.045z"/>
	<path style="fill:#1D1D1B;" d="M29.989,42.462c-0.391,0.15-0.541,0.567-0.328,0.931c0.054,0.092,0.196,0.009,0.143-0.083
		c-0.155-0.27-0.015-0.587,0.248-0.7C30.134,42.574,30.074,42.429,29.989,42.462z"/>
	<path style="fill:#1D1D1B;" d="M29.846,41.612c-0.117,0.005-0.118,0.182,0,0.183c0.598,0.006,0.892,0.532,0.855,1.075
		c-0.007,0.103,0.133,0.103,0.166,0.022C31.135,42.236,30.495,41.587,29.846,41.612z"/>
	<path style="fill:#1D1D1B;" d="M32.535,42.361c-0.06,0.369-0.514,0.633-0.82,0.317c-0.094-0.097-0.231,0.046-0.147,0.147
		c0.375,0.445,1.235,0.184,1.195-0.433C32.755,42.27,32.557,42.224,32.535,42.361z"/>
	<path style="fill:#1D1D1B;" d="M33.348,10.683c-0.052,0-0.052,0.081,0,0.081C33.4,10.764,33.4,10.683,33.348,10.683z"/>
	<path style="fill:#1D1D1B;" d="M48.268,17.729c0.368-1.257-0.753-2.491-1.936-2.977c0.613-0.468,0.67-1.502,0.211-2.214
		c-0.493-0.764-1.351-0.954-2.108-0.7c0.073-0.37,0.002-0.774-0.245-1.121c-0.736-1.038-2.049-0.845-3.068-0.395
		c-0.063-0.689-0.354-1.307-0.907-1.773c-0.303-0.255-0.92-0.326-1.158-0.557c-0.165-0.16-0.195-0.473-0.323-0.719
		c-0.042-0.08-0.137-0.091-0.212-0.059c-0.204-0.805-0.94-1.472-1.765-1.578c-0.841-0.108-1.597,0.34-2.015,1.024
		c-0.164-0.615-0.616-1.183-1.244-1.268c-0.385-0.052-0.773,0.093-1.036,0.351c-0.376-0.72-1.195-1.169-2.037-0.795
		c-0.448,0.199-0.792,0.633-0.93,1.099c-0.005,0.017-0.088,0.776-0.054,0.74c-0.187,0.196-0.849,0.092-1.287,0.034
		c0.07-0.105,0.027-0.282-0.138-0.286c-4.943-0.121-9.776,1.262-13.745,4.239c-0.095,0.071-0.012,0.229,0.096,0.164
		c3.941-2.389,7.949-3.761,12.485-3.992c-0.787,0.255-1.39,0.84-1.282,1.842c0.097,0.906,0.84,1.446,1.644,1.465
		c-0.722,0.249-1.472,0.727-1.492,1.571c-0.014,0.594,0.337,1.051,0.834,1.226c-1.003,0.988-1.252,2.721-0.171,3.786
		c0.911,0.897,2.588,0.905,3.532,0.059c-0.298,1.618,0.799,3.315,2.437,3.661c1.652,0.349,3.3-0.784,3.775-2.346
		c0.002,0.015-0.003,0.028,0.007,0.044c0.365,0.62,0.955,0.995,1.686,1.03c0.367,0.017,0.659-0.108,1.007-0.196
		c0.651-0.164,0.178-0.279,0.921,0.158c0.919,0.541,3.78,1.373,3.958-0.339c0.013,0,0.033,0,0.045,0
		c0.004,0,0.008-0.001,0.011-0.002c0.819,1.163,3.661,0.321,4.29-0.687c0.032-0.051,0.042-0.103,0.068-0.155
		c2.744,10.06,4.023,20.841-5.611,27.782c-0.164,0.118-0.018,0.386,0.161,0.276C52.434,40.167,52.074,27.217,48.268,17.729z
		 M47.785,17.336c-0.16,0.843-1.071,1.444-1.834,1.605c-0.18,0.038-1.166-0.001-1.697-0.151c0.227-0.093,0.421-0.245,0.47-0.498
		c0.025-0.129-0.122-0.294-0.253-0.194c-0.185,0.141-0.329,0.258-0.51,0.333c0.01-0.098-0.094-0.185-0.188-0.099
		c-0.046,0.042-0.092,0.084-0.137,0.127c-0.014,0.012-0.007,0.034-0.014,0.052c-0.132,0.008-0.535,0.024-0.747-0.02
		c0-0.001,0.001-0.002,0-0.003c-0.005-0.014-0.009-0.027-0.014-0.04c-0.021-0.06-0.073-0.088-0.135-0.077
		c-0.071,0.013-0.094,0.03-0.149,0.076c-0.04,0.034-0.045,0.104-0.019,0.147c0.116,0.191,0.419,0.265,0.71,0.295
		c-0.803,1.389-3.099,0.228-3.874-0.541c-0.082-0.082-0.227-0.086-0.309,0c-0.803,0.842-2.056,0.758-2.767-0.204
		c-0.048-0.065-0.125-0.053-0.168-0.01c0.018-0.064,0.047-0.124,0.06-0.189c0.057-0.27-0.345-0.386-0.417-0.115
		c-0.4,1.494-1.876,2.679-3.482,2.265c-1.515-0.39-2.263-1.949-2.172-3.403c0.001-0.01-0.006-0.014-0.008-0.022
		c0.021-0.025,0.048-0.043,0.067-0.069c0.317,0.19,0.671,0.3,1.019,0.24c0.148-0.025,0.122-0.234,0-0.274
		c-0.272-0.09-0.549-0.097-0.815-0.215c-0.01-0.004-0.018-0.012-0.028-0.017c0.013-0.024,0.033-0.042,0.045-0.068
		c0.07-0.151-0.113-0.321-0.243-0.187c-0.028,0.028-0.059,0.053-0.087,0.081c-0.192-0.13-0.369-0.28-0.515-0.469
		c-0.093-0.12-0.3-0.009-0.209,0.122c0.13,0.189,0.305,0.381,0.504,0.549c-0.843,0.715-1.954,1.077-2.961,0.336
		c-1.225-0.901-0.977-2.771,0.196-3.594c0.16-0.112,0.113-0.385-0.104-0.384c-0.975-0.28-1.132-0.735-0.473-1.366
		c0.123-0.571,0.465-0.897,1.025-0.978c0.078-0.027,0.087-0.106,0.057-0.161c0.097-0.019,0.195-0.038,0.29-0.074
		c0.129,0.226,0.317,0.422,0.534,0.549c0.12,0.07,0.268-0.107,0.153-0.199c-0.469-0.377-0.506-0.845-0.427-1.398
		c0.024-0.171-0.193-0.294-0.296-0.125c-0.15,0.248-0.171,0.524-0.112,0.787c-0.824,0.066-2.577-0.683-1.539-1.842
		c0.399-0.445,1.246-0.665,1.818-0.642c0.605,0.024,1.173,0.069,1.773-0.022C29.931,7.233,30,7.075,29.97,6.965
		c-0.443-1.604,1.578-2.217,2.295-0.959c-0.102,0.188-0.153,0.403-0.111,0.638c0.018,0.1,0.19,0.078,0.18-0.024
		c-0.013-0.129,0.011-0.243,0.051-0.35c0.019,0.053,0.041,0.101,0.056,0.158c0.032,0.123,0.242,0.102,0.228-0.031
		c-0.015-0.145-0.051-0.285-0.1-0.42c0.305-0.307,0.839-0.408,1.229-0.168c0.558,0.345,0.632,0.976,0.722,1.563
		c-0.241-0.01-0.48,0.004-0.702,0.073c-0.131,0.041-0.106,0.234,0.032,0.238c0.644,0.021,1.149,0.105,1.743,0.358
		c0.191,0.081,0.343-0.161,0.165-0.282c-0.278-0.19-0.616-0.316-0.965-0.371c0.014-0.094,0.023-0.191,0.02-0.29
		c0.375-0.75,1.22-1.257,2.07-1.028c0.821,0.222,1.181,0.934,1.325,1.702c0.025,0.134,0.152,0.154,0.252,0.109
		c0.004,0.098,0.009,0.196,0.004,0.299c-0.007,0.129,0.108,0.213,0.224,0.224c1.195,0.113,2.014,1.087,1.988,2.278
		c-0.004,0.186,0.202,0.287,0.356,0.204c0.577-0.31,1.232-0.596,1.913-0.452c0.748,0.158,1.309,1.019,0.968,1.657
		c-0.132,0.091-0.257,0.195-0.369,0.317c-0.024,0.027-0.022,0.056-0.031,0.084c-0.02,0.012-0.03,0.027-0.051,0.038
		c-0.025,0.013-0.029,0.033-0.042,0.051c-0.137-0.173-0.276-0.345-0.433-0.491c-0.112-0.103-0.306,0.03-0.218,0.168
		c0.278,0.435,0.673,0.811,1.028,1.186c0.083,0.088,0.246-0.031,0.171-0.132c-0.117-0.159-0.237-0.326-0.357-0.49
		c0.008-0.002,0.014,0.003,0.022-0.001c0.234-0.099,0.417-0.252,0.555-0.432c0.338-0.225,0.742-0.296,1.215-0.206
		c1.231,0.624,1.292,1.411,0.183,2.361c-0.247,0-0.32,0.41-0.06,0.446C46.528,15.131,48.017,16.115,47.785,17.336z"/>
</g>
<g>
</g>
<g>
</g>
<g>
</g>
<g>
</g>
<g>
</g>
<g>
</g>
<g>
</g>
<g>
</g>
<g>
</g>
<g>
</g>
<g>
</g>
<g>
</g>
<g>
</g>
<g>
</g>
<g>
</g>
</svg>
