<?xml version="1.0" standalone="no"?>
<!DOCTYPE svg PUBLIC "-//W3C//DTD SVG 20010904//EN"
 "http://www.w3.org/TR/2001/REC-SVG-20010904/DTD/svg10.dtd">
<svg version="1.0" xmlns="http://www.w3.org/2000/svg"
 x="100" width="300" height="100" rx="15" viewBox="0 0 403.000000 165.000000"
 preserveAspectRatio="xMidYMid meet">
<metadata>
Created by potrace 1.15, written by Peter Selinger 2001-2017
</metadata>
<g transform="translate(0.000000,165.000000) scale(0.100000,-0.100000)"
fill="#000000" stroke="none">
<path d="M0 825 l0 -825 2015 0 2015 0 0 825 0 825 -2015 0 -2015 0 0 -825z
m1493 741 c34 -30 75 -65 90 -78 l28 -23 -20 -56 -19 -57 63 -40 c141 -90 215
-271 170 -418 -38 -122 -93 -198 -177 -240 l-48 -24 17 -43 c9 -23 17 -44 19
-45 1 -2 24 10 49 28 80 55 174 200 210 324 33 114 18 261 -37 351 -43 71 -6
49 54 -33 55 -74 94 -162 109 -241 25 -145 -37 -312 -173 -457 -96 -103 -124
-140 -133 -177 -6 -23 -11 -26 -43 -22 -21 2 -46 7 -57 10 -23 6 -89 -31 -80
-45 3 -6 19 -10 35 -10 33 0 65 -37 55 -63 -9 -23 -59 -40 -97 -32 l-33 7 28
-27 c33 -32 34 -59 2 -90 -36 -37 -130 -32 -157 9 -14 21 -8 63 12 81 28 26
25 35 -9 22 -33 -12 -85 4 -95 30 -9 23 12 52 42 59 46 10 53 14 47 24 -12 19
-67 42 -83 34 -10 -4 -33 -8 -52 -9 -33 -2 -37 1 -57 44 -12 25 -63 90 -112
144 -101 112 -151 200 -177 316 -19 84 -12 154 26 254 21 56 137 223 147 213
3 -3 -4 -17 -14 -33 -28 -40 -53 -118 -60 -189 -12 -125 47 -291 148 -417 37
-45 72 -74 131 -109 77 -45 138 -72 138 -63 0 3 -28 19 -62 36 -35 17 -64 32
-66 34 -1 1 5 19 14 40 15 38 15 39 -8 56 -12 10 -34 23 -48 29 -33 15 -104
104 -132 166 -34 76 -37 201 -6 280 35 93 80 147 171 205 26 17 47 35 47 40 0
4 -9 31 -20 58 l-19 49 22 15 c12 9 51 43 87 76 36 33 66 61 68 61 2 0 31 -24
65 -54z m1176 -202 l31 -6 0 -105 0 -104 -42 3 -43 3 -23 72 c-12 39 -29 74
-38 77 -21 8 -111 -13 -157 -36 -42 -21 -107 -85 -107 -105 0 -7 -4 -13 -8
-13 -13 0 -32 -87 -32 -148 1 -201 162 -339 423 -359 72 -6 77 -7 77 -29 0
-29 -21 -31 -195 -22 -99 5 -146 12 -195 30 -219 78 -295 218 -254 467 22 133
140 247 283 271 58 10 238 12 280 4z m-1997 -10 c42 -7 45 -17 40 -131 -4 -73
-4 -73 -32 -73 -27 0 -30 4 -50 70 -24 80 -35 87 -127 76 -62 -7 -114 -40
-132 -85 -25 -59 23 -110 149 -156 210 -76 259 -135 229 -277 -14 -62 -54
-106 -126 -138 -61 -27 -202 -49 -328 -51 -99 -2 -100 -2 -103 22 -3 23 0 25
65 27 146 6 282 42 329 86 91 85 49 161 -122 222 -175 62 -206 93 -207 208 -1
64 2 79 25 113 17 26 45 50 79 67 48 23 64 26 163 26 61 0 127 -3 148 -6z
m2401 -13 c15 -12 16 -30 12 -141 -4 -75 -2 -138 4 -153 l11 -27 169 0 c93 0
172 4 176 9 3 5 8 78 11 162 3 103 9 156 17 161 7 4 68 7 137 5 l124 -3 0 -24
c1 -23 -4 -25 -49 -28 -28 -1 -60 -5 -72 -7 l-23 -5 0 -305 c0 -292 1 -306 20
-325 15 -15 33 -20 70 -20 47 0 50 -2 50 -25 l0 -25 -122 0 c-68 0 -129 4
-136 8 -9 6 -14 54 -18 168 -3 87 -7 165 -9 172 -3 9 -47 12 -174 12 -152 0
-171 -2 -179 -17 -13 -26 -6 -261 8 -279 8 -9 32 -14 66 -14 51 0 54 -1 54
-25 l0 -25 -209 0 c-182 0 -210 2 -215 16 -10 27 3 34 64 34 98 0 90 -29 90
320 0 234 -3 310 -12 318 -7 5 -41 13 -75 17 -62 7 -63 8 -63 37 l0 30 128 -3
c90 -3 134 -8 145 -18z"/>
<path d="M1272 1197 c-82 -66 -118 -178 -92 -287 10 -42 24 -65 64 -107 29
-29 57 -53 63 -53 16 0 33 87 40 200 6 94 -11 265 -27 275 -4 3 -26 -10 -48
-28z"/>
<path d="M1532 1175 c-20 -76 -11 -400 13 -423 7 -7 51 21 80 52 74 79 94 196
48 293 -17 37 -100 123 -117 123 -7 0 -17 -20 -24 -45z"/>
</g>
</svg>
