<?xml version="1.0" standalone="no"?>
<!DOCTYPE svg PUBLIC "-//W3C//DTD SVG 20010904//EN"
 "http://www.w3.org/TR/2001/REC-SVG-20010904/DTD/svg10.dtd">
<svg version="1.0" xmlns="http://www.w3.org/2000/svg"
 width="138.000000pt" height="42.000000pt" viewBox="0 0 138.000000 42.000000"
 preserveAspectRatio="xMidYMid meet">
<metadata>
Created by potrace 1.15, written by Peter Selinger 2001-2017
</metadata>
<g transform="translate(0.000000,42.000000) scale(0.100000,-0.100000)"
fill="#000000" stroke="none">
<path d="M90 383 c-83 -33 -74 -131 17 -174 85 -40 103 -57 103 -94 0 -40 -20
-55 -73 -55 -27 0 -41 7 -61 31 -14 17 -26 35 -26 40 0 5 -5 9 -11 9 -6 0 -9
-19 -7 -47 l3 -47 83 -4 c80 -3 83 -3 112 27 56 55 32 114 -64 160 -36 17 -73
42 -82 56 -15 23 -15 27 0 50 34 51 106 37 129 -26 17 -43 27 -35 27 21 0 45
-2 50 -22 49 -13 -1 -43 1 -68 5 -25 3 -52 3 -60 -1z"/>
<path d="M407 376 c-49 -18 -62 -30 -86 -80 -42 -86 -13 -202 60 -238 50 -26
137 -24 180 5 40 26 79 98 79 144 0 74 -56 155 -119 173 -47 13 -68 12 -114
-4z m110 -26 c84 -51 96 -202 22 -265 -36 -30 -92 -34 -128 -9 -80 57 -79 225
3 275 39 24 63 24 103 -1z"/>
<path d="M770 368 c-83 -43 -114 -153 -69 -246 28 -58 69 -82 137 -82 60 0
111 20 130 50 16 26 8 25 -29 -1 -42 -30 -100 -36 -137 -14 -97 58 -94 233 5
280 57 27 119 -1 138 -62 12 -41 25 -24 25 32 0 42 -3 55 -15 55 -8 0 -15 -4
-15 -9 0 -5 -17 -3 -37 5 -54 19 -83 17 -133 -8z"/>
<path d="M1020 371 c0 -5 7 -11 16 -13 14 -3 16 -22 15 -143 -1 -110 -5 -142
-16 -151 -25 -19 -17 -24 40 -24 30 0 55 5 55 10 0 6 -7 10 -15 10 -12 0 -15
14 -15 70 l0 70 75 0 c41 0 78 1 83 3 4 1 8 -26 10 -60 2 -52 0 -63 -17 -76
-12 -7 -18 -17 -14 -20 10 -11 103 -8 103 3 0 6 -7 10 -15 10 -13 0 -15 23
-15 145 0 120 3 147 15 151 32 13 13 24 -40 24 -30 0 -55 -4 -55 -10 0 -5 9
-10 20 -10 19 0 21 -5 18 -67 l-3 -68 -82 -3 -83 -3 0 66 c0 49 4 67 15 71 32
13 13 24 -40 24 -30 0 -55 -4 -55 -9z"/>
</g>
</svg>
